<svg width="18" height="18" viewBox="0 0 18 18" fill="none" xmlns="http://www.w3.org/2000/svg">
<path fill-rule="evenodd" clip-rule="evenodd" d="M5.99199 15.0003V9.10943C5.99199 8.49972 5.45085 8.00488 4.7841 8.00488C4.11734 8.00488 3.5762 8.49972 3.5762 9.10943V15.0003C3.5762 15.61 4.11734 16.1049 4.7841 16.1049C5.45085 16.1049 5.99199 15.61 5.99199 15.0003Z" fill="#4EAEA3"/>
<path fill-rule="evenodd" clip-rule="evenodd" d="M10.2079 14.9831V3.01641C10.2079 2.39713 9.66674 1.89453 8.99998 1.89453C8.33322 1.89453 7.79208 2.39713 7.79208 3.01641V14.9831C7.79208 15.6024 8.33322 16.105 8.99998 16.105C9.66674 16.105 10.2079 15.6024 10.2079 14.9831Z" fill="#4EAEA3"/>
<path fill-rule="evenodd" clip-rule="evenodd" d="M14.4238 15.2949V8.81488C14.4238 8.36776 13.8826 8.00488 13.2159 8.00488C12.5491 8.00488 12.008 8.36776 12.008 8.81488V15.2949C12.008 15.742 12.5491 16.1049 13.2159 16.1049C13.8826 16.1049 14.4238 15.742 14.4238 15.2949Z" fill="#4EAEA3"/>
</svg>
