<svg width="15" height="15" viewBox="0 0 460 439" fill="#4EAEA3" xmlns="http://www.w3.org/2000/svg">
    <path fill-rule="evenodd" clip-rule="evenodd" d="M344.029 2.1731C325.588 0.666536 302.646 0.666748 273.383 0.666748H186.617C157.354 0.666748 134.412 0.666536 115.972 2.1731C97.1955 3.70718 81.6841 6.88286 67.6437 14.0366C44.5626 25.797 25.7969 44.5626 14.0365 67.6438C6.88277 81.6841 3.70709 97.1958 2.17301 115.972C0.666448 134.412 0.66666 157.354 0.66666 186.617V277.537C0.66666 330.813 43.8541 374 97.1287 374H109.966C115.267 374 118.892 379.355 116.924 384.276C102.275 420.899 144.451 454.006 176.547 431.082L232.242 391.299L233.292 390.553C248.415 379.897 266.435 374.12 284.935 374.002L286.222 374H301.063C334.1 374.004 354.254 374.009 371.182 369.044C411.271 357.29 442.623 325.938 454.378 285.849C459.342 268.921 459.338 248.769 459.333 215.732V186.617C459.333 157.354 459.333 134.411 457.827 115.972C456.293 97.1956 453.117 81.6841 445.964 67.6438C434.203 44.5626 415.438 25.797 392.355 14.0366C378.316 6.88286 362.804 3.70718 344.029 2.1731ZM82.1715 42.5488C90.9487 38.0767 101.78 35.4392 118.578 34.0669C135.562 32.6791 157.2 32.6667 187.333 32.6667H272.667C302.8 32.6667 324.438 32.6791 341.422 34.0669C358.22 35.4392 369.051 38.0767 377.829 42.5488C394.887 51.2413 408.758 65.1115 417.452 82.1716C421.923 90.9488 424.56 101.78 425.934 118.578C427.321 135.562 427.333 157.2 427.333 187.333V212.596C427.333 249.757 427.171 264.908 423.67 276.844C414.981 306.476 391.809 329.648 362.177 338.337C350.241 341.838 335.09 342 297.93 342H286.222L284.731 342.002C259.7 342.162 235.318 349.977 214.858 364.394L157.948 405.042C151.858 409.392 143.855 403.109 146.635 396.161C157.012 370.22 137.906 342 109.966 342H97.1287C61.5272 342 32.6667 313.14 32.6667 277.537V187.333C32.6667 157.2 32.679 135.562 34.0668 118.578C35.4391 101.78 38.0766 90.9488 42.5487 82.1716C51.2412 65.1115 65.1115 51.2413 82.1715 42.5488Z" fill="#4EAEA3" stroke="#4EAEA3"/>
    <path d="M166 187.333C166 199.116 156.449 208.667 144.667 208.667C132.885 208.667 123.333 199.116 123.333 187.333C123.333 175.551 132.885 166 144.667 166C156.449 166 166 175.551 166 187.333Z" fill="#4EAEA3" stroke="#4EAEA3"/>
    <path d="M251.333 187.333C251.333 199.116 241.782 208.667 230 208.667C218.218 208.667 208.667 199.116 208.667 187.333C208.667 175.551 218.218 166 230 166C241.782 166 251.333 175.551 251.333 187.333Z" fill="#4EAEA3" stroke="#4EAEA3"/>
    <path d="M336.667 187.333C336.667 199.116 327.116 208.667 315.333 208.667C303.551 208.667 294 199.116 294 187.333C294 175.551 303.551 166 315.333 166C327.116 166 336.667 175.551 336.667 187.333Z" fill="#4EAEA3" stroke="#4EAEA3"/>
  </svg>
  