<svg width="12" height="12" viewBox="0 0 16 15" fill="none" xmlns="http://www.w3.org/2000/svg">
<path fill-rule="evenodd" clip-rule="evenodd" d="M0.5 3C0.5 1.34315 1.84315 0 3.5 0H12.5C14.1568 0 15.5 1.34315 15.5 3V10C15.5 11.6568 14.1568 13 12.5 13H9.97688L8.3763 14.8293C8.28135 14.9377 8.14418 15 8 15C7.85582 15 7.71865 14.9377 7.6237 14.8293L6.02313 13H3.5C1.84315 13 0.5 11.6568 0.5 10V3ZM8 3C8.23343 3 8.4358 3.16153 8.48755 3.38913L8.7642 4.60572C8.89215 5.16845 9.33155 5.60785 9.89427 5.7358L11.1109 6.01245C11.3385 6.0642 11.5 6.26657 11.5 6.5C11.5 6.73343 11.3385 6.9358 11.1109 6.98755L9.89427 7.2642C9.33155 7.39215 8.89215 7.83155 8.7642 8.39427L8.48755 9.61088C8.4358 9.83848 8.23343 10 8 10C7.76657 10 7.5642 9.83848 7.51245 9.61088L7.2358 8.39427C7.10785 7.83155 6.66845 7.39215 6.10572 7.2642L4.88912 6.98755C4.66152 6.9358 4.5 6.73343 4.5 6.5C4.5 6.26657 4.66152 6.0642 4.88912 6.01245L6.10572 5.7358C6.66845 5.60785 7.10785 5.16845 7.2358 4.60572L7.51245 3.38913C7.5642 3.16153 7.76657 3 8 3Z" fill="#F4F4F4"/>
</svg>
