<svg width="46" height="46" viewBox="0 0 46 46" fill="none" xmlns="http://www.w3.org/2000/svg">
<path d="M23 46C35.7025 46 46 35.7025 46 23C46 10.2975 35.7025 0 23 0C10.2975 0 0 10.2975 0 23C0 35.7025 10.2975 46 23 46Z" fill="white"/>
<path d="M45.6 23C45.6 35.4816 35.4816 45.6 23 45.6C10.5184 45.6 0.4 35.4816 0.4 23C0.4 10.5184 10.5184 0.4 23 0.4C35.4816 0.4 45.6 10.5184 45.6 23Z" stroke="#2AAE71" stroke-opacity="0.08" stroke-width="0.8"/>
<path d="M17.0974 34.374L15.3364 36.135L9.81104 30.6096L11.572 28.8486L17.0974 34.374Z" fill="#83E3B7"/>
<path d="M36.1802 26.0907C36.2162 26.3423 36.0634 26.6837 35.722 27.07C34.8685 28.0583 32.9369 29.3161 30.547 30.4302C28.3009 31.4723 26.1537 32.1552 25.0755 32.1552C25.0755 32.1552 25.0755 32.1552 25.0666 32.1552C24.24 32.1552 23.4314 31.8497 22.6498 31.5532C21.7064 31.1938 20.7271 30.8255 19.7119 30.9782C18.6337 31.1399 17.6904 31.8317 16.765 33.1524L12.74 29.1274L14.1146 27.5552C14.9861 26.5579 17.0345 25.4528 19.4693 24.6712C21.9041 23.8895 24.1951 23.593 25.4439 23.8985C26.0009 24.0333 26.3154 24.2759 26.4052 24.6173C26.4501 24.8059 26.3962 24.9227 26.3513 24.9856C26.0279 25.4708 24.7251 25.6684 23.683 25.8212C22.4791 26.0009 21.6166 26.1356 21.4818 26.6837C21.383 27.1059 21.7962 27.4653 22.1107 27.6989C23.0361 28.3727 27.6181 29.1184 31.1041 27.7528C31.3916 27.636 31.8408 27.3845 32.3529 27.088C33.458 26.4501 35.3087 25.3899 35.9646 25.7044C36.0365 25.7403 36.1443 25.8212 36.1802 26.0907Z" fill="#83E3B7"/>
<path d="M31.697 15.8032H34.1408V16.6298H31.697V15.8032Z" fill="#83E3B7"/>
<path d="M19.9634 15.8032H22.4071V16.6298H19.9634V15.8032Z" fill="#83E3B7"/>
<path d="M25.8301 15.8032H28.2738V16.6298H25.8301V15.8032Z" fill="#83E3B7"/>
<path d="M36.1891 13.3599V20.2778C36.1891 20.7989 35.7668 21.2212 35.2457 21.2212H18.8672C18.3461 21.2212 17.9238 20.7989 17.9238 20.2778V13.3599H36.1891ZM34.7785 16.9536V15.4892C34.7785 15.3185 34.6348 15.1747 34.4641 15.1747H31.3914C31.2207 15.1747 31.077 15.3185 31.077 15.4892V16.9536C31.077 17.1243 31.2207 17.2681 31.3914 17.2681H34.4641C34.6348 17.2681 34.7785 17.1243 34.7785 16.9536ZM34.7785 19.1009C34.7785 18.9302 34.6348 18.7864 34.4641 18.7864H31.3914C31.2207 18.7864 31.077 18.9302 31.077 19.1009C31.077 19.2716 31.2207 19.4153 31.3914 19.4153H34.4641C34.6348 19.4153 34.7785 19.2716 34.7785 19.1009ZM28.9027 16.9536V15.4892C28.9027 15.3185 28.759 15.1747 28.5883 15.1747H25.5156C25.3449 15.1747 25.2012 15.3185 25.2012 15.4892V16.9536C25.2012 17.1243 25.3449 17.2681 25.5156 17.2681H28.5883C28.768 17.2681 28.9027 17.1243 28.9027 16.9536ZM28.9027 19.1009C28.9027 18.9302 28.759 18.7864 28.5883 18.7864H25.5156C25.3449 18.7864 25.2012 18.9302 25.2012 19.1009C25.2012 19.2716 25.3449 19.4153 25.5156 19.4153H28.5883C28.768 19.4153 28.9027 19.2716 28.9027 19.1009ZM23.0359 16.9536V15.4892C23.0359 15.3185 22.8922 15.1747 22.7215 15.1747H19.6488C19.4781 15.1747 19.3344 15.3185 19.3344 15.4892V16.9536C19.3344 17.1243 19.4781 17.2681 19.6488 17.2681H22.7215C22.9012 17.2681 23.0359 17.1243 23.0359 16.9536ZM23.0359 19.1009C23.0359 18.9302 22.8922 18.7864 22.7215 18.7864H19.6488C19.4781 18.7864 19.3344 18.9302 19.3344 19.1009C19.3344 19.2716 19.4781 19.4153 19.6488 19.4153H22.7215C22.9012 19.4153 23.0359 19.2716 23.0359 19.1009Z" fill="#83E3B7"/>
<path d="M36.1891 10.8081V12.7308H17.9238V10.8081C17.9238 10.287 18.3461 9.86475 18.8672 9.86475H35.2457C35.7578 9.86475 36.1891 10.287 36.1891 10.8081Z" fill="#83E3B7"/>
</svg>
