<svg width="15" height="15" viewBox="0 0 20 13" fill="none" xmlns="http://www.w3.org/2000/svg">
<path d="M9.83411 12.0735C9.65082 12.0745 9.46913 12.0394 9.29944 11.9701C9.12976 11.9008 8.97543 11.7987 8.8453 11.6696L0.489168 3.31347C0.22692 3.05122 0.0795898 2.69553 0.0795898 2.32466C0.0795898 1.95378 0.22692 1.5981 0.489168 1.33585C0.751416 1.0736 1.1071 0.92627 1.47798 0.92627C1.84885 0.92627 2.20454 1.0736 2.46679 1.33585L9.83411 8.7171L17.2014 1.34977C17.4679 1.12162 17.8106 1.00239 18.1611 1.01593C18.5116 1.02947 18.8441 1.17477 19.0921 1.4228C19.3401 1.67083 19.4854 2.00332 19.499 2.35383C19.5125 2.70433 19.3933 3.04704 19.1651 3.31347L10.809 11.6696C10.5496 11.9269 10.1995 12.0719 9.83411 12.0735Z" fill="black" fill-opacity="0.5"/>
</svg>
