<svg width="32" height="30" viewBox="0 0 32 30" fill="none" xmlns="http://www.w3.org/2000/svg">
<path d="M31.8333 26.0833C31.8333 26.9232 31.4997 27.7286 30.9058 28.3225C30.3119 28.9164 29.5065 29.25 28.6666 29.25H3.33329C2.49344 29.25 1.68799 28.9164 1.09412 28.3225C0.500256 27.7286 0.166626 26.9232 0.166626 26.0833V3.91667C0.166626 3.07681 0.500256 2.27136 1.09412 1.6775C1.68799 1.08363 2.49344 0.75 3.33329 0.75H11.25L14.4166 5.5H28.6666C29.5065 5.5 30.3119 5.83363 30.9058 6.4275C31.4997 7.02136 31.8333 7.82681 31.8333 8.66667V26.0833Z" fill="url(#paint0_linear_12_10)"/>
<defs>
<linearGradient id="paint0_linear_12_10" x1="0.799341" y1="2.175" x2="30.4868" y2="28.5375" gradientUnits="userSpaceOnUse">
<stop stop-color="#D3FCE9"/>
<stop offset="0.579818" stop-color="#9DF3CB"/>
<stop offset="1" stop-color="#63E4A9"/>
</linearGradient>
</defs>
</svg>
