<svg width="17" height="17" viewBox="0 0 17 17" fill="none" xmlns="http://www.w3.org/2000/svg">
<path d="M2.04922 6.86614L2.19813 6.88013C2.15564 7.33232 2.15494 7.90564 2.15494 8.7326V9.81506C2.15494 11.2218 2.1563 12.2103 2.25345 12.9577C2.34835 13.6877 2.52367 14.084 2.79651 14.3662C3.06623 14.6452 3.44009 14.8221 4.13502 14.9188C4.13502 14.9188 4.13503 14.9188 4.13503 14.9188L2.04922 6.86614ZM2.04922 6.86614L2.19813 6.88013C2.23932 6.44176 2.31621 6.17012 2.44045 5.94313C2.56407 5.71728 2.74747 5.51207 3.08596 5.25285C3.43683 4.98414 3.90949 4.68989 4.59575 4.26398L6.01901 3.38067C6.74452 2.9304 7.24517 2.62067 7.66145 2.41823C8.06377 2.22258 8.33382 2.15494 8.5875 2.15494C8.84118 2.15494 9.11123 2.22258 9.51355 2.41822C9.92983 2.62067 10.4305 2.9304 11.156 3.38067L12.5793 4.26398C13.2655 4.68989 13.7382 4.98414 14.0891 5.25285C14.4275 5.51206 14.6109 5.71728 14.7346 5.94314L14.8661 5.87111L14.7346 5.94315C14.8588 6.17012 14.9357 6.44175 14.9769 6.88012C15.0193 7.33232 15.0201 7.90565 15.0201 8.7326V9.81506C15.0201 11.2218 15.0187 12.2103 14.9215 12.9577L15.0703 12.977L14.9215 12.9577C14.8267 13.6877 14.6513 14.084 14.3785 14.3662L14.4863 14.4705L14.3785 14.3662C14.1088 14.6452 13.7349 14.8221 13.04 14.9188L2.04922 6.86614ZM16.3383 6.7522L16.189 6.76623L16.3383 6.75219C16.2871 6.20755 16.1792 5.73457 15.9341 5.28657C15.6882 4.83741 15.3494 4.49565 14.9205 4.16719C14.5103 3.85303 13.9805 3.52425 13.3306 3.12089L13.3233 3.11637L11.8526 2.20364L11.846 2.19952C11.1587 1.77293 10.5987 1.42534 10.1115 1.18847C9.60323 0.941278 9.12223 0.7875 8.5875 0.7875C8.05277 0.7875 7.57177 0.941281 7.06345 1.18848C6.57634 1.42537 6.01624 1.77298 5.32881 2.19963L5.32234 2.20365L3.85171 3.11636L3.84553 3.1202C3.19508 3.52388 2.66498 3.85286 2.25454 4.1672C1.82565 4.49565 1.4868 4.83741 1.24095 5.28656C0.995715 5.73457 0.887864 6.20756 0.836684 6.7522L0.985972 6.76622L0.836684 6.7522C0.787487 7.27577 0.787493 7.91329 0.7875 8.69969L0.7875 8.70648V9.85413L0.7875 9.86483C0.787492 11.2108 0.787486 12.2881 0.897417 13.1339C1.01095 14.0074 1.25244 14.7364 1.81338 15.3166C2.37744 15.9001 3.09146 16.1543 3.94667 16.2732C4.76886 16.3875 5.8142 16.3875 7.11165 16.3875H7.1229H10.0521H10.0634C11.3608 16.3875 12.4061 16.3875 13.2283 16.2732C14.0835 16.1543 14.7976 15.9001 15.3616 15.3166C15.9225 14.7364 16.164 14.0074 16.2776 13.1339L16.1288 13.1146L16.2776 13.1339C16.3875 12.2881 16.3875 11.2107 16.3875 9.8647V9.85406V8.70648V8.69938C16.3875 7.91312 16.3875 7.2757 16.3383 6.7522Z" fill="#4EAEA3" stroke="#4EAEA3" stroke-width="0.3"/>
<path d="M6.45264 12.1737C6.07503 12.1737 5.76891 12.4799 5.76891 12.8575C5.76891 13.235 6.07503 13.5412 6.45264 13.5412H10.7224C11.1 13.5412 11.4061 13.2351 11.4061 12.8575C11.4061 12.4799 11.1 12.1737 10.7224 12.1737H6.45264Z" fill="#4EAEA3" stroke="#4EAEA3" stroke-width="0.3"/>
</svg>
