<svg width="12" height="13" viewBox="0 0 12 13" fill="none" xmlns="http://www.w3.org/2000/svg">
<path d="M7.5 4.5V2C7.5 1.60218 7.34196 1.22064 7.06066 0.93934C6.77936 0.658035 6.39782 0.5 6 0.5H2C1.60218 0.5 1.22064 0.658035 0.93934 0.93934C0.658035 1.22064 0.5 1.60218 0.5 2V11C0.5 11.3978 0.658035 11.7794 0.93934 12.0607C1.22064 12.342 1.60218 12.5 2 12.5H6C6.39782 12.5 6.77936 12.342 7.06066 12.0607C7.34196 11.7794 7.5 11.3978 7.5 11V8.5M5 4.5L3 6.5M3 6.5L5 8.5M3 6.5H11.5" stroke="#CDD1DC" stroke-linecap="round" stroke-linejoin="round"/>
</svg>
