<svg width="15" height="16" viewBox="0 0 15 16" fill="none" xmlns="http://www.w3.org/2000/svg">
<g clip-path="url(#clip0_171_563)">
<path d="M7.4751 14.2292H1.86876C1.5249 14.2292 1.24585 13.9502 1.24585 13.6063V2.39369C1.24585 2.04983 1.52493 1.77078 1.86876 1.77078H7.4751C7.81957 1.77078 8.09801 1.49234 8.09801 1.14787C8.09801 0.803398 7.81957 0.524902 7.4751 0.524902H1.86876C0.838447 0.524902 0 1.36338 0 2.39369V13.6063C0 14.6366 0.838447 15.4751 1.86876 15.4751H7.4751C7.81957 15.4751 8.09801 15.1966 8.09801 14.8522C8.09801 14.5077 7.81957 14.2292 7.4751 14.2292Z" fill="#CDD1DC"/>
<path d="M14.8144 7.55647L11.027 3.81893C10.7828 3.57723 10.3879 3.58036 10.1462 3.82517C9.90448 4.06997 9.90697 4.46428 10.1524 4.70598L12.859 7.37706H5.60631C5.26184 7.37706 4.9834 7.6555 4.9834 7.99997C4.9834 8.34444 5.26184 8.62291 5.60631 8.62291H12.859L10.1524 11.294C9.907 11.5357 9.90513 11.93 10.1462 12.1748C10.2683 12.2981 10.429 12.3604 10.5897 12.3604C10.7479 12.3604 10.9061 12.3006 11.027 12.181L14.8144 8.44347C14.9327 8.32637 15 8.16687 15 7.99994C15 7.83307 14.9333 7.67422 14.8144 7.55647Z" fill="#CDD1DC"/>
</g>
<defs>
<clipPath id="clip0_171_563">
<rect width="15" height="15" fill="#CDD1DC" transform="translate(0 0.5)"/>
</clipPath>
</defs>
</svg>
