<svg width="108" height="127" viewBox="0 0 108 127" fill="none" xmlns="http://www.w3.org/2000/svg">
<path opacity="0.05" fill-rule="evenodd" clip-rule="evenodd" d="M73.4313 -31.6192C69.0466 -30.3319 66.2377 -27.1424 65.6147 -22.742L65.3159 -20.634L57.7571 -16.3373C53.5994 -13.9741 42.9027 -7.86447 33.9862 -2.76033L17.7749 6.52026L15.5334 5.4495C9.04014 2.34895 1.56639 6.22421 0.574724 13.206C0.0470553 16.9223 2.37103 21.3149 5.7441 22.9752L7.53105 23.8552V76.5499L6.51712 76.9955C-0.126162 79.9164 -1.48741 89.157 4.06046 93.6712C4.86732 94.3273 6.17202 95.1253 6.96019 95.4441C9.05127 96.2893 13.1938 96.1569 15.4407 95.173L17.339 94.3415L46.6868 110.671L76.0345 127L105.075 110.674L134.116 94.3475L135.818 95.1854C138.036 96.2772 142.045 96.2871 144.458 95.2069C151.048 92.2563 152.539 83.8286 147.335 78.9436C146.517 78.1754 145.685 77.5472 145.486 77.5472C145.288 77.5472 145.126 65.3654 145.126 50.4762V23.4057L146.976 21.7953C150.595 18.647 151.509 13.9889 149.334 9.77764C146.84 4.94678 140.675 2.96812 135.561 5.35712L133.58 6.28222L110.075 -7.44597L86.5701 -21.1746L86.2837 -23.0866C85.3696 -29.1967 79.1791 -33.3061 73.4313 -31.6192ZM81.6683 -13.4584C80.9354 -13.0227 79.4904 -12.4556 78.4569 -12.1982C76.6321 -11.7436 76.5386 -11.6327 75.2365 -8.37407C73.4759 -3.96902 70.7814 5.29525 68.9477 13.2477C67.37 20.0912 67.2667 20.1513 66.2635 14.8143C64.8412 7.25028 65.6748 -4.64748 68.0923 -11.2886C68.5443 -12.5295 68.8177 -13.5444 68.6997 -13.5444C68.5821 -13.5444 60.8327 -9.16253 51.4785 -3.80746C44.295 0.306911 37.1089 4.41706 29.9202 8.52298C27.4168 9.94908 25.4255 11.1702 25.4941 11.2368C25.5631 11.303 28.3479 11.8435 31.6827 12.4382C45.2168 14.85 62.1815 20.645 74.7699 27.1559C83.2433 31.5386 95.4478 38.8913 99.3851 41.9858L100.623 42.9582L97.4552 45.357L94.2878 47.7559L87.5167 43.4235C68.0242 30.9517 47.6495 22.8403 27.6248 19.579C20.7446 18.4584 20.1337 18.4558 19.7752 19.5446C19.6189 20.0194 18.6036 21.1237 17.5189 21.9989L15.5463 23.59V76.7944L17.5933 78.5328C19.5566 80.2004 19.752 80.2675 22.3801 80.1729C31.7388 79.8365 45.346 76.742 52.2155 73.3875C53.4035 72.8078 54.4669 72.422 54.5795 72.5307C54.9616 72.8994 48.7324 78.6514 46.0487 80.408C40.7818 83.8557 33.8526 86.6752 27.7918 87.8362C23.106 88.7342 23.1474 88.6466 26.508 90.5363C34.5775 95.0741 67.2324 113.21 67.334 113.21C67.3972 113.21 66.6959 110.992 65.7755 108.281C59.3686 89.4071 56.5281 67.1486 57.8239 45.9659C58.1133 41.2395 58.4874 36.3772 58.6557 35.1604L58.9621 32.9488L62.747 34.6091C65.9656 36.0215 66.5218 36.4168 66.463 37.2508C65.222 54.868 65.2429 61.4923 66.5814 74.5394C68.0282 88.6401 72.0015 104.343 76.7367 114.675L77.8379 117.078L82.6493 114.372L108.723 99.7116L129.986 87.7576V85.0975C129.986 82.8103 129.763 82.0816 128.397 79.8911C125.877 75.8538 120.769 70.0832 113.991 63.6179C110.543 60.3287 107.721 57.5857 107.721 57.5221C107.721 57.4589 109.137 57.7855 110.867 58.2482C117.776 60.0958 124.879 64.4717 132.324 71.4668L137.111 75.9647V26.4929L131.656 31.8695C115.534 47.7602 97.2254 60.6493 76.3373 70.8133C73.1584 72.3601 70.5165 73.586 70.4661 73.5378C70.4163 73.4893 70.3281 71.6163 70.2707 69.3756L70.166 65.3014L73.0248 63.8594C94.6343 52.9593 114.33 38.8148 128.153 24.2698L131.792 20.4414L130.889 18.8159C130.352 17.8496 129.986 16.3783 129.986 15.1886V13.1867L122.082 8.56681C117.735 6.0257 107.163 -0.147902 98.5893 -5.15192L83.0006 -14.2508L81.6683 -13.4584Z" fill="#33C481"/>
</svg>
