<svg width="16" height="16" viewBox="0 0 16 16" fill="none" xmlns="http://www.w3.org/2000/svg">
<path d="M7.99992 10.6573C7.55622 10.6573 7.20099 11.0594 7.20099 11.5219C7.20099 11.9844 7.55622 12.3864 7.99992 12.3864C8.42497 12.3864 8.79877 11.9895 8.78214 11.5401C8.79869 11.0561 8.44636 10.6573 7.99992 10.6573Z" fill="#4EAEA3" stroke="#4EAEA3" stroke-width="0.2"/>
<path d="M6.94787 3.17007L6.94763 3.17053L2.56413 11.4703C2.56411 11.4704 2.56409 11.4704 2.56407 11.4704C2.33909 11.8998 2.34165 12.4092 2.56676 12.8359L6.94787 3.17007ZM6.94787 3.17007C7.16972 2.74465 7.56208 2.49903 8.00264 2.49903C8.4401 2.49903 8.83541 2.74743 9.05741 3.17313L9.05764 3.17357M6.94787 3.17007L9.05764 3.17357M9.05764 3.17357L13.4384 11.4735M9.05764 3.17357L13.4384 11.4735M12.3639 13.4983C12.8042 13.4983 13.2025 13.2498 13.4301 12.8207L12.3639 13.4983ZM12.3639 13.4983H3.619M12.3639 13.4983H3.619M3.619 13.4983C3.18342 13.4983 2.78837 13.2551 2.5668 12.836L3.619 13.4983ZM13.4384 11.4735C13.4384 11.4735 13.4385 11.4736 13.4385 11.4736M13.4384 11.4735L13.4385 11.4736M13.4385 11.4736C13.6575 11.8902 13.6555 12.3934 13.4302 12.8205L13.4385 11.4736ZM1.43659 10.7839L1.43639 10.7843C0.985049 11.6483 0.987837 12.6772 1.44516 13.5352C1.89713 14.3846 2.70944 14.9002 3.62179 14.9002H12.3667C13.2823 14.9002 14.1001 14.378 14.5574 13.5136C15.0117 12.6558 15.0148 11.633 14.5631 10.7778L10.1854 2.48446C10.1853 2.48439 10.1853 2.48431 10.1852 2.48423C9.73611 1.61908 8.92073 1.1002 8.00264 1.1002C7.08444 1.1002 6.26924 1.62222 5.82018 2.48089C5.82013 2.48097 5.82009 2.48106 5.82005 2.48114L1.43659 10.7839Z" fill="#4EAEA3" stroke="#4EAEA3" stroke-width="0.2"/>
<path d="M7.80157 5.29291L7.80153 5.29278L7.79666 5.2943C7.41254 5.41436 7.18693 5.79136 7.18693 6.22465H7.18669L7.18717 6.23158C7.19553 6.35202 7.2032 6.47327 7.21089 6.59489L7.2109 6.59504C7.21856 6.71621 7.22625 6.83773 7.23463 6.95855C7.25838 7.41855 7.28213 7.87396 7.30588 8.32934C7.32964 8.78502 7.3534 9.24067 7.37717 9.70091L7.37718 9.70112C7.39639 10.0585 7.65421 10.334 7.99983 10.334C8.34846 10.334 8.60664 10.0397 8.62252 9.68184L8.62262 9.68184V9.6774C8.62262 9.48731 8.62268 9.31718 8.63902 9.12948L8.63908 9.12948L8.63926 9.12601C8.65463 8.83102 8.6707 8.53602 8.68677 8.24088L8.68678 8.24071C8.70285 7.94567 8.71893 7.65048 8.73431 7.35528L8.73432 7.35528L8.73435 7.35446C8.74269 7.16439 8.75451 6.97416 8.76641 6.78287L8.76643 6.7824C8.7783 6.59157 8.79023 6.39967 8.79865 6.20762L8.79875 6.20763V6.20324C8.79875 6.057 8.78086 5.92168 8.72766 5.78475L8.72769 5.78474L8.72677 5.78253C8.56685 5.39836 8.18677 5.19376 7.80157 5.29291Z" fill="#4EAEA3" stroke="#4EAEA3" stroke-width="0.2"/>
</svg>
