<svg width="12" height="12" viewBox="0 0 17 17" fill="none" xmlns="http://www.w3.org/2000/svg">
<path d="M3.10977 13.4334V13.434L3.12353 13.4327L5.23586 13.2381L5.23666 13.238C5.56686 13.2058 5.87315 13.0607 6.10676 12.8271L14.0803 4.85362C14.4827 4.45114 14.7081 3.91575 14.7081 3.34895C14.7081 2.78215 14.4827 2.24676 14.0803 1.84428L13.5684 1.33242C12.76 0.524073 11.3602 0.524073 10.5518 1.33242L9.53533 2.34893L2.58556 9.2987C2.35239 9.53187 2.20635 9.83864 2.18167 10.171L1.98714 12.2819L1.98714 12.2819L1.987 12.2836C1.96184 12.5938 2.07118 12.8955 2.288 13.1207L2.28798 13.1207L2.28998 13.1227C2.49035 13.3231 2.75168 13.4334 3.03047 13.4334H3.03048H3.03049H3.0305H3.03051H3.03052H3.03053H3.03054H3.03056H3.03058H3.03059H3.03061H3.03063H3.03065H3.03067H3.0307H3.03072H3.03075H3.03078H3.03081H3.03084H3.03087H3.0309H3.03093H3.03097H3.031H3.03104H3.03108H3.03112H3.03116H3.0312H3.03124H3.03129H3.03133H3.03138H3.03143H3.03148H3.03153H3.03158H3.03163H3.03168H3.03174H3.03179H3.03185H3.03191H3.03197H3.03203H3.03209H3.03215H3.03222H3.03228H3.03235H3.03241H3.03248H3.03255H3.03262H3.03269H3.03276H3.03284H3.03291H3.03299H3.03306H3.03314H3.03322H3.0333H3.03338H3.03346H3.03354H3.03363H3.03371H3.0338H3.03388H3.03397H3.03406H3.03415H3.03424H3.03433H3.03442H3.03452H3.03461H3.03471H3.03481H3.0349H3.035H3.0351H3.0352H3.0353H3.0354H3.03551H3.03561H3.03572H3.03582H3.03593H3.03604H3.03615H3.03626H3.03637H3.03648H3.03659H3.0367H3.03682H3.03693H3.03705H3.03717H3.03728H3.0374H3.03752H3.03764H3.03776H3.03789H3.03801H3.03813H3.03826H3.03838H3.03851H3.03864H3.03876H3.03889H3.03902H3.03915H3.03928H3.03941H3.03955H3.03968H3.03981H3.03995H3.04009H3.04022H3.04036H3.0405H3.04064H3.04078H3.04092H3.04106H3.0412H3.04134H3.04149H3.04163H3.04177H3.04192H3.04207H3.04221H3.04236H3.04251H3.04266H3.04281H3.04296H3.04311H3.04326H3.04341H3.04357H3.04372H3.04388H3.04403H3.04419H3.04434H3.0445H3.04466H3.04482H3.04498H3.04514H3.0453H3.04546H3.04562H3.04578H3.04595H3.04611H3.04627H3.04644H3.0466H3.04677H3.04694H3.0471H3.04727H3.04744H3.04761H3.04778H3.04795H3.04812H3.04829H3.04846H3.04863H3.04881H3.04898H3.04915H3.04933H3.0495H3.04968H3.04985H3.05003H3.05021H3.05038H3.05056H3.05074H3.05092H3.0511H3.05128H3.05146H3.05164H3.05182H3.052H3.05219H3.05237H3.05255H3.05274H3.05292H3.05311H3.05329H3.05348H3.05366H3.05385H3.05404H3.05422H3.05441H3.0546H3.05479H3.05498H3.05516H3.05535H3.05554H3.05573H3.05593H3.05612H3.05631H3.0565H3.05669H3.05688H3.05708H3.05727H3.05746H3.05766H3.05785H3.05805H3.05824H3.05844H3.05863H3.05883H3.05903H3.05922H3.05942H3.05962H3.05981H3.06001H3.06021H3.06041H3.06061H3.06081H3.06101H3.06121H3.0614H3.0616H3.06181H3.06201H3.06221H3.06241H3.06261H3.06281H3.06301H3.06321H3.06342H3.06362H3.06382H3.06402H3.06423H3.06443H3.06463H3.06484H3.06504H3.06524H3.06545H3.06565H3.06586H3.06606H3.06627H3.06647H3.06668H3.06688H3.06709H3.06729H3.0675H3.06771H3.06791H3.06812H3.06832H3.06853H3.06874H3.06894H3.06915H3.06936H3.06956H3.06977H3.06998H3.07018H3.07039H3.0706H3.07081H3.07101H3.07122H3.07143H3.07164H3.07184H3.07205H3.07226H3.07247H3.07268H3.07288H3.07309H3.0733H3.07351H3.07372H3.07392H3.07413H3.07434H3.07455H3.07476H3.07496H3.07517H3.07538H3.07559H3.07579H3.076H3.07621H3.07642H3.07663H3.07683H3.07704H3.07725H3.07746H3.07766H3.07787H3.07808H3.07828H3.07849H3.0787H3.07891H3.07911H3.07932H3.07953H3.07973H3.07994H3.08015H3.08035H3.08056H3.08076H3.08097H3.08117H3.08138H3.08159H3.08179H3.082H3.0822H3.08241H3.08261H3.08281H3.08302H3.08322H3.08343H3.08363H3.08383H3.08404H3.08424H3.08444H3.08465H3.08485H3.08505H3.08525H3.08545H3.08565H3.08586H3.08606H3.08626H3.08646H3.08666H3.08686H3.08706H3.08726H3.08746H3.08766H3.08786H3.08805H3.08825H3.08845H3.08865H3.08884H3.08904H3.08924H3.08943H3.08963H3.08983H3.09002H3.09022H3.09041H3.09061H3.0908H3.09099H3.09119H3.09138H3.09157H3.09177H3.09196H3.09215H3.09234H3.09253H3.09272H3.09291H3.0931H3.09329H3.09348H3.09367H3.09386H3.09404H3.09423H3.09442H3.0946H3.09479H3.09498H3.09516H3.09535H3.09553H3.09571H3.0959H3.09608H3.09626H3.09644H3.09663H3.09681H3.09699H3.09717H3.09735H3.09753H3.0977H3.09788H3.09806H3.09824H3.09841H3.09859H3.09877H3.09894H3.09911H3.09929H3.09946H3.09963H3.09981H3.09998H3.10015H3.10032H3.10049H3.10066H3.10083H3.101H3.10117H3.10133H3.1015H3.10167H3.10183H3.102H3.10216H3.10232H3.10249H3.10265H3.10281H3.10297H3.10313H3.10329H3.10345H3.10361H3.10377H3.10393H3.10408H3.10424H3.10439H3.10455H3.1047H3.10486H3.10501H3.10516H3.10531H3.10546H3.10561H3.10576H3.10591H3.10606H3.10621H3.10635H3.1065H3.10664H3.10679H3.10693H3.10707H3.10722H3.10736H3.1075H3.10764H3.10778H3.10791H3.10805H3.10819H3.10832H3.10846H3.10859H3.10873H3.10886H3.10899H3.10912H3.10925H3.10938H3.10951H3.10964H3.10977ZM12.5899 2.30655L12.5899 2.30657L12.5921 2.30874L13.1039 2.8206C13.2496 2.96627 13.3267 3.15192 13.3267 3.34895C13.3267 3.54784 13.2484 3.73882 13.1062 3.87507L13.1062 3.87505L13.1039 3.8773L12.5756 4.40566L11.007 2.83709L11.5354 2.30874C11.6806 2.16352 11.8733 2.08593 12.0637 2.08593C12.2569 2.08593 12.4474 2.15813 12.5899 2.30655ZM3.56188 10.2822L3.56194 10.2822L10.0235 3.81347L11.5921 5.38197L5.14106 11.833C5.13586 11.8363 5.12942 11.8402 5.12267 11.844C5.1169 11.8472 5.11214 11.8497 5.10858 11.8513L3.39807 12.0074L3.55473 10.2907L3.55465 10.2907C3.55565 10.2892 3.5578 10.2863 3.56188 10.2822ZM3.55439 10.2907L3.48434 10.2843H3.55535C3.55535 10.2861 3.5551 10.288 3.5547 10.2896C3.55459 10.29 3.55449 10.2904 3.55439 10.2907ZM15.4593 16.2738C15.8377 16.2738 16.15 15.9616 16.15 15.5831C16.15 15.2047 15.8377 14.8924 15.4593 14.8924H1.0407C0.662274 14.8924 0.35 15.2047 0.35 15.5831C0.35 15.9616 0.662274 16.2738 1.0407 16.2738H15.4593Z" fill="#F4F4F4" stroke="#F4F4F4" stroke-width="0.3"/>
</svg>
