<svg width="12" height="12" viewBox="0 0 15 19" fill="none" xmlns="http://www.w3.org/2000/svg">
<path fill-rule="evenodd" clip-rule="evenodd" d="M8.99371 1.00628C8.82965 0.84219 8.60705 0.75 8.375 0.75H3.125C1.67526 0.75 0.5 1.92526 0.5 3.375V15.625C0.5 17.0748 1.67526 18.25 3.125 18.25H6.625C7.10826 18.25 7.5 17.8583 7.5 17.375C7.5 16.8917 7.10826 16.5 6.625 16.5H3.125C2.64176 16.5 2.25 16.1083 2.25 15.625V3.375C2.25 2.89176 2.64176 2.5 3.125 2.5H7.5V5.125C7.5 6.57474 8.67521 7.75 10.125 7.75H12.75V8.625C12.75 9.10826 13.1417 9.5 13.625 9.5C14.1083 9.5 14.5 9.10826 14.5 8.625V6.875C14.5 6.64293 14.4078 6.42038 14.2437 6.25628L8.99371 1.00628ZM11.5126 6H10.125C9.64174 6 9.25 5.60824 9.25 5.125V3.73743L11.5126 6ZM5.75 6H4C3.51675 6 3.125 6.39176 3.125 6.875C3.125 7.35824 3.51675 7.75 4 7.75H5.75C6.23326 7.75 6.625 7.35824 6.625 6.875C6.625 6.39176 6.23326 6 5.75 6ZM12.75 12.5625C12.75 10.8711 11.3789 9.5 9.6875 9.5C7.99613 9.5 6.625 10.8711 6.625 12.5625C6.625 14.2539 7.99613 15.625 9.6875 15.625C10.2075 15.625 10.6979 15.495 11.127 15.2661L13.0107 17.1231C13.3548 17.4624 13.9088 17.4584 14.2481 17.1143C14.5874 16.7702 14.5834 16.2162 14.2393 15.8769L12.3724 14.0364C12.6129 13.5992 12.75 13.0965 12.75 12.5625ZM9.6875 11.25C10.4123 11.25 11 11.8377 11 12.5625C11 12.9304 10.8498 13.2615 10.6053 13.5008C10.3677 13.7332 10.045 13.875 9.6875 13.875C8.96265 13.875 8.375 13.2873 8.375 12.5625C8.375 11.8377 8.96265 11.25 9.6875 11.25ZM5.75 10.375C5.75 9.89174 5.35825 9.5 4.875 9.5H4C3.51675 9.5 3.125 9.89174 3.125 10.375C3.125 10.8583 3.51675 11.25 4 11.25H4.875C5.35825 11.25 5.75 10.8583 5.75 10.375ZM5.75 13.875C5.75 13.3917 5.35825 13 4.875 13H4C3.51675 13 3.125 13.3917 3.125 13.875C3.125 14.3583 3.51675 14.75 4 14.75H4.875C5.35825 14.75 5.75 14.3583 5.75 13.875Z" fill="#F4F4F4"/>
</svg>
